<svg xmlns="http://www.w3.org/2000/svg" width="400" height="400">
  <path fill="#ffffff" d="M237.543 301.5h-73.09c-4.95 0-9.234 1.81-12.852 5.424-3.61 3.617-5.42 7.897-5.42 12.847v63.96c0 4.95 1.81 9.23 5.43 12.857 3.62 3.61 7.9 5.42 12.85 5.42h73.098c4.94 0 9.227-1.81 12.848-5.42 3.61-3.62 5.42-7.905 5.42-12.854v-63.96c0-4.947-1.812-9.227-5.426-12.845-3.617-3.617-7.9-5.425-12.847-5.425zm21.84-296.076C255.863 1.812 251.628 0 246.676 0h-91.36c-4.947 0-9.18 1.812-12.702 5.424-3.52 3.617-5.186 7.902-4.996 12.85l7.992 219.265c.19 4.94 2.14 9.23 5.852 12.84 3.71 3.62 8.04 5.43 12.99 5.43h73.098c4.942 0 9.27-1.81 12.99-5.43 3.71-3.61 5.654-7.9 5.853-12.85l7.987-219.26c.198-4.948-1.475-9.23-4.997-12.85z"/>
</svg>