<?xml version="1.0" encoding="UTF-8" standalone="no"?>
<svg width="101px" height="46px" viewBox="0 0 101 46" version="1.1" xmlns="http://www.w3.org/2000/svg" xmlns:xlink="http://www.w3.org/1999/xlink">
    <!-- Generator: Sketch 39.1 (31720) - http://www.bohemiancoding.com/sketch -->
    <title>Group 5</title>
    <desc>Created with Sketch.</desc>
    <defs></defs>
    <g id="1.-Main" stroke="none" stroke-width="1" fill="none" fill-rule="evenodd" opacity="0.4">
        <g id="delo4-main-2560" transform="translate(-809.000000, -24465.000000)">
            <g id="Group-5" transform="translate(809.000000, 24466.000000)">
                <g id="Group-4" fill="#A2998D">
                    <path d="M59.698465,12.1047664 C61.0354192,12.1402611 61.0704119,13.4161893 60.5077294,14.5861036 C59.804143,16.1455191 58.0451769,17.0672057 55.4421871,16.6772342 C56.0753216,14.1251428 58.0451769,11.9985174 59.698465,12.1047664 M85.1659138,17.7051698 C85.6933703,15.0468293 87.4875623,12.1402611 89.5630956,12.033777 C92.2015447,11.8920333 91.8145255,15.8265371 90.4423453,19.0875821 C89.457651,18.874849 88.542942,20.186507 89.2113024,21.2144425 C88.5779347,21.9588907 87.6986849,22.4551111 86.8192019,22.4551111 C84.638224,22.4551111 84.7439019,19.9027845 85.1659138,17.7051698 M57.7638357,24.9717079 C59.7290253,25.034235 61.9984181,24.6539012 64.1143096,23.026317 C63.9986004,23.3641042 63.8863905,23.7051822 63.7781465,24.0500214 C63.3911273,25.2554303 66.9440521,25.1715124 67.1904006,24.1788365 C67.9994317,21.2722683 70.004513,16.6941589 72.3968468,13.6383249 L72.4670655,13.6383249 C71.3414672,20.9253136 71.0951186,25.0295337 75.1055145,24.9587794 C77.1635514,24.9042445 79.0550232,23.6325474 80.9399629,20.6465275 C81.2870904,23.7651236 83.5756125,24.9597196 86.2565194,24.9597196 C88.5779347,24.9597196 90.5480233,24.0796394 92.1310927,22.5199888 C94.6990898,23.0517039 97.6893321,22.5230446 99.9757547,17.489616 C100.186877,17.0286552 98.955601,16.3568418 98.7444784,16.7820729 C97.2320942,20.362335 95.1917869,21.2137373 93.4678136,21.0364989 C96.4580559,16.0740596 96.2821593,9.41046107 90.0203335,9.51671007 C86.0211352,9.58511374 82.3823617,12.5497428 81.2406668,17.1407808 C79.3897866,21.1512102 77.4616892,22.491311 76.2313461,22.5258654 C74.2612575,22.5966197 74.8593992,18.449618 75.9847643,10.5803754 C76.1608941,9.5171802 72.2209502,9.4109312 71.4116858,10.3678774 C69.3027929,12.7641213 67.4673095,15.4793473 65.975221,18.5285995 C63.8642285,21.7746004 60.8102995,22.6687844 58.7487633,22.4551111 C56.2864442,22.2068833 54.984716,20.7537168 55.1956053,18.4851126 C59.2764532,19.4420588 62.6184886,18.2016253 63.9199835,15.5430497 C65.2567044,12.9554635 64.0958801,9.72991325 60.1559362,9.58793451 C56.0400956,9.44619082 52.3462669,12.3527591 51.3965652,16.9962163 C50.5173155,20.9664498 52.4167189,24.7944695 57.7638357,24.9717079" id="Fill-1"></path>
                    <path d="M28.3096675,19.5215079 C29.2621772,19.5923137 30.214453,20.0518476 30.9552679,20.5821874 C30.214453,21.7136726 29.1915343,22.5267664 27.9924762,22.4913635 C25.5936581,22.4559606 25.8053529,19.4509366 28.3096675,19.5215079 M36.1281067,32.0039513 C37.4406146,32.0386508 37.4750004,33.2845506 36.9224886,34.4268208 C36.2319658,35.9498477 34.5051911,36.8496902 31.9498827,36.4689335 C32.5713999,33.9768995 34.5051911,31.9000873 36.1281067,32.0039513 M98.7675498,36.5727976 C97.5245153,39.4802878 95.4527131,42.0414864 94.1402053,42.0070213 C92.3790447,42.0070213 95.072832,33.7000068 95.9703713,30.4809244 C95.7287351,29.4772178 92.7933116,29.2350246 92.3790447,29.9965381 C91.7229078,32.3155435 91.032385,34.842277 90.3072426,37.0227189 C89.2712245,39.9649086 87.0955632,42.0070213 85.7486696,42.0070213 C84.4710153,42.0070213 84.8165106,40.2071018 85.299783,38.2341536 C85.9215342,35.4652269 86.8193073,32.384708 87.3028136,30.4462249 C87.3028136,29.5119173 84.125754,29.2003251 83.7112532,30.0654682 C83.1587414,32.208866 82.4057628,34.5032535 81.7893917,36.8665711 C80.5313865,39.6854369 78.4890579,42.1106509 77.2205264,42.1106509 C75.4247462,42.1453505 77.7386524,36.5033986 78.3257839,34.011599 C78.9819208,31.1732733 78.2565445,29.4772178 75.6319966,29.4772178 C73.3873298,29.4425183 71.4881583,31.2424379 70.1758844,32.9384934 C70.5557655,30.8616811 69.5887529,29.4772178 67.7585869,29.4772178 C65.6867847,29.4425183 63.5111234,31.4848655 62.3024747,33.1806865 L63.0622368,30.4462249 C62.8896062,29.4425183 60.0234221,29.1656256 59.4706764,29.9271391 C58.815943,32.4006511 58.2267062,34.5789828 57.6550133,36.6942458 C55.9230924,40.5515178 53.0880193,42.1788777 50.3200803,42.0761859 C48.0410278,42.0070213 46.6597483,40.4495294 46.8669987,38.0264255 C47.1778743,34.6345489 49.4223072,31.7615237 51.3563323,31.9692518 C52.7722314,32.1078154 52.046855,33.9768995 51.2527071,34.9806061 C51.2527071,35.7421196 53.8426353,35.9498477 54.5677777,35.1191697 C56.4671831,33.111522 56.1560736,29.5810819 51.5979685,29.5119173 C47.1285178,29.4481452 43.737892,33.0594727 43.0239776,36.9720763 C40.987263,41.2119807 37.4740647,42.3458104 35.1959478,42.1106509 C32.7786503,41.8684578 31.5007622,40.4495294 31.7080126,38.2341536 C35.7138399,39.1686957 38.9945247,37.9572609 40.2721789,35.3613628 C41.5844529,32.8346293 40.4448096,29.6849459 36.5772272,29.5463824 C32.5692947,29.4089911 28.9704828,32.2020667 28.0027685,36.6731448 C26.7232429,39.4748953 24.7440719,42.1441782 22.7307489,42.0414864 C21.5913396,41.9723218 21.4874805,40.0687727 22.2128568,37.334311 C23.3344885,33.1940505 24.8455918,28.0346093 25.9061711,24.657269 C26.5798519,24.8427238 27.3601987,24.9395542 28.2392585,24.9308793 C30.3555049,24.9308793 32.15456,24.0823827 33.424261,22.4913635 C34.9409783,23.69342 37.1281016,24.8600736 39.9851629,24.9308793 C45.8408052,25.1076592 49.7561066,19.4509366 49.93248,11.9556092 C50.1086194,4.56649033 45.2054868,0.182395491 38.7154618,0.00585003817 C34.8352479,-0.100358581 30.9552679,1.24307494 28.7681447,3.75339654 C26.5461678,6.40486071 26.404882,10.1524072 29.1211253,12.2737661 C30.3204174,12.8749116 31.8018132,11.3546981 31.6254399,10.7181498 C29.2268558,6.72301765 33.424261,2.58674292 38.0099684,2.58674292 C44.1474806,2.58674292 46.1579965,6.93520043 46.0875875,11.9204407 C46.0169446,17.3649806 43.9711072,21.9964266 40.2321791,22.2791807 C38.4684455,22.4559606 36.1051829,21.6074639 34.5531441,20.3346017 C36.5283386,16.6932638 37.5161697,8.80897368 40.373231,5.34441571 C40.5849258,4.63729608 38.4331241,3.96534486 37.5161697,4.63729608 C34.623787,7.07681193 33.5302254,14.0415652 31.8018132,18.6024399 C28.4156319,16.4102753 24.388752,16.9952433 22.9482916,21.0065529 C22.8895785,21.1694999 21.6603451,26.0851068 20.8315774,28.8195684 C19.8645648,31.5193305 17.3090225,34.4612858 15.0643557,34.5306848 C11.6112741,34.6345489 14.097577,27.6425987 16.2386186,21.2393678 C16.3076241,20.2009617 12.9581677,19.8204394 12.4400417,20.9280101 C8.36520894,25.70435 1.28594719,24.2160226 0.11191816,29.0617616 C-0.475213316,31.4154665 1.28594719,33.7691714 4.49762654,33.6653073 C5.36077998,33.5961428 5.63703587,31.8653878 5.08429018,31.6923591 C3.80686987,31.4154665 3.59961947,30.4117599 3.84125566,29.3386542 C4.42838713,26.8466202 8.60684512,27.0890478 11.3696379,24.1815576 C9.53923797,29.892674 7.88146874,37.1957475 14.0629573,37.0574184 C16.445869,37.0227189 18.1377901,35.499692 19.4500641,33.7344719 C17.8615342,39.0301321 17.2746367,44.5335204 21.4187089,44.6029194 C24.1850104,44.6533275 26.4011393,42.2435876 27.8954006,39.8474461 C28.3838192,42.428339 30.4097736,44.442317 34.2289352,44.5682199 C36.9961724,44.655672 40.3774415,43.8566456 43.0466675,39.8448671 C43.6167231,42.3931706 45.6702797,44.386282 48.5935395,44.4990554 C51.2307189,44.6249583 54.0318741,43.9795006 56.4264816,41.2623887 C56.2349036,41.9809967 56.0419222,42.7101552 55.8447302,43.4606492 C55.7067192,44.672084 59.3670512,44.6373845 59.6779268,43.841406 C60.2994441,41.1416438 60.8521898,38.7879389 61.6463377,36.1228763 C62.8206007,34.0805291 64.5125218,32.3155435 65.5829256,32.3155435 C66.5843239,32.280844 66.5155524,33.4231142 66.2736823,34.3229567 C65.3756752,37.9572609 64.6851525,40.7608871 63.9943958,43.6683774 C64.1326407,44.672084 67.4130916,44.5682199 67.7929727,43.8067065 C68.3110987,41.8337583 69.036475,38.4763468 69.6579923,36.2267404 C70.4175206,34.3576562 72.4551709,32.280844 73.6638196,32.2461445 C74.7688432,32.2461445 74.5615928,33.4575792 74.3199566,34.4612858 C73.87107,36.2959049 73.0423023,39.3070248 72.8004322,40.6917226 C72.3515457,43.045193 73.1456936,44.6373845 75.839247,44.5335204 C77.8768973,44.4704517 79.6071808,42.9209313 80.969279,41.0316839 C80.8864724,42.9835311 81.7269359,44.5042134 84.0567485,44.5335204 C86.3701868,44.6029194 88.5458481,43.4606492 90.5488787,40.1377028 C90.0309867,42.214515 90.7558952,44.3951913 92.6555345,44.3951913 C96.2468611,44.4298908 98.8021695,39.6186169 99.9761986,37.2651465 C100.183449,36.8496902 98.9748002,36.1228763 98.7675498,36.5727976" id="Fill-3"></path>
                </g>
                <path d="M90.8333333,0.833333333 L99.1666667,0.833333333" id="Line" stroke="#A2998D" stroke-width="2" stroke-linecap="square"></path>
                <path d="M99.1666667,9.16666701 L99.1666667,0.833333674" id="Line" stroke="#A2998D" stroke-width="2" stroke-linecap="square"></path>
            </g>
        </g>
    </g>
</svg>