<?xml version="1.0" encoding="UTF-8" standalone="no"?>
<svg width="120px" height="54px" viewBox="0 0 120 54" version="1.1" xmlns="http://www.w3.org/2000/svg" xmlns:xlink="http://www.w3.org/1999/xlink">
    <!-- Generator: Sketch 39.1 (31720) - http://www.bohemiancoding.com/sketch -->
    <title>Group 5</title>
    <desc>Created with Sketch.</desc>
    <defs></defs>
    <g id="1.-Main" stroke="none" stroke-width="1" fill="none" fill-rule="evenodd">
        <g id="delo4-main-2560" transform="translate(-812.000000, -30.000000)">
            <g id="Group-5" transform="translate(812.000000, 30.000000)">
                <g id="Group-4" fill="#3C3C3C">
                    <path d="M71.638158,14.5257197 C73.242503,14.5683133 73.2844943,16.0994271 72.6092753,17.5033243 C71.7649716,19.374623 69.6542123,20.4806468 66.5306246,20.0126811 C67.2903859,16.9501713 69.6542123,14.3982209 71.638158,14.5257197 M102.199097,21.2462037 C102.832044,18.0561952 104.985075,14.5683133 107.475715,14.4405324 C110.641854,14.27044 110.177431,18.9918445 108.530814,22.9050985 C107.349181,22.6498188 106.25153,24.2238084 107.053563,25.457331 C106.293522,26.3506688 105.238422,26.9461333 104.183042,26.9461333 C101.565869,26.9461333 101.692682,23.8833414 102.199097,21.2462037 M69.3166028,29.9660495 C71.6748304,30.041082 74.3981017,29.5846814 76.9371715,27.6315804 C76.7983205,28.036925 76.6636687,28.4462187 76.5337758,28.8600256 C76.0693528,30.3065164 80.3328625,30.2058149 80.6284808,29.0146038 C81.599318,25.5267219 84.0054156,20.0329906 86.8762162,16.3659899 L86.9604786,16.3659899 C85.6097606,25.1103763 85.3141423,30.0354404 90.1266174,29.9505352 C92.5962617,29.8850934 94.8660278,28.3590569 97.1279555,24.775833 C97.5445085,28.5181483 100.290735,29.9516636 103.507823,29.9516636 C106.293522,29.9516636 108.657628,28.8955673 110.557311,27.0239866 C113.638908,27.6620447 117.227199,27.0276536 119.970906,20.9875391 C120.224253,20.4343862 118.746721,19.6282102 118.493374,20.1384874 C116.678513,24.4348019 114.230144,25.4564848 112.161376,25.2437987 C115.749667,19.2888716 115.538591,11.2925533 108.0244,11.4200521 C103.225362,11.5021365 98.858834,15.0596914 97.4888001,20.5689369 C95.2677439,25.3814523 92.954027,26.9895732 91.4776153,27.0310385 C89.113509,27.1159437 89.8312791,22.1395415 91.1817171,12.6964504 C91.393073,11.4206162 86.6651402,11.2931174 85.694023,12.4414528 C83.1633514,15.3169456 80.9607714,18.5752168 79.1702652,22.2343194 C76.6370742,26.1295204 72.9723594,27.2025413 70.498516,26.9461333 C67.543733,26.64826 65.9816592,24.9044601 66.2347263,22.1821352 C71.1317438,23.3304706 75.1421864,21.8419503 76.7039802,18.6516597 C78.3080453,15.5465562 76.9150562,11.6758959 72.1871234,11.5055214 C67.2481147,11.335429 62.8155203,14.8233109 61.6758783,20.3954596 C60.6207786,25.1597398 62.9000627,29.7533634 69.3166028,29.9660495" id="Fill-1"></path>
                    <path d="M33.971601,23.4258095 C35.1146127,23.5107764 36.2573436,24.0622172 37.1463215,24.6986248 C36.2573436,26.0564071 35.0298412,27.0321196 33.5909714,26.9896362 C30.7123897,26.9471527 30.9664235,23.3411239 33.971601,23.4258095 M43.3537281,38.4047416 C44.9287375,38.446381 44.9700004,39.9414607 44.3069863,41.3121849 C43.478359,43.1398172 41.4062293,44.2196283 38.3398592,43.7627202 C39.0856799,40.7722794 41.4062293,38.2801047 43.3537281,38.4047416 M118.52106,43.8873571 C117.029418,47.3763454 114.543256,50.4497837 112.968246,50.4084256 C110.854854,50.4084256 114.087398,40.4400082 115.164446,36.5771093 C114.874482,35.3726614 111.351974,35.0820296 110.854854,35.9958457 C110.067489,38.7786522 109.238862,41.8107324 108.368691,44.4272626 C107.125469,47.9578903 104.514676,50.4084256 102.898403,50.4084256 C101.365218,50.4084256 101.779813,48.2485221 102.35974,45.8809843 C103.105841,42.5582723 104.183169,38.8616497 104.763376,36.5354699 C104.763376,35.4143008 100.950905,35.0403902 100.453504,36.0785618 C99.7904897,38.6506392 98.8869154,41.4039042 98.1472701,44.2398853 C96.6376638,47.6225243 94.1868695,50.5327811 92.6646317,50.5327811 C90.5096954,50.5744205 93.2863829,43.8040783 93.9909407,40.8139188 C94.778305,37.407928 93.9078534,35.3726614 90.7583959,35.3726614 C88.0647958,35.331022 85.78579,37.4909254 84.2110613,39.5261921 C84.6669186,37.0340174 83.5065035,35.3726614 81.3103043,35.3726614 C78.8241417,35.331022 76.2133481,37.7818386 74.7629696,39.8168239 L75.6746842,36.5354699 C75.4675274,35.331022 72.0281065,34.9987508 71.3648117,35.9125669 C70.5791315,38.8807813 69.8720475,41.4947794 69.1860159,44.033095 C67.1077108,48.6618214 63.7056231,50.6146532 60.3840964,50.4914231 C57.6492333,50.4084256 55.991698,48.5394353 56.2403985,45.6317106 C56.6134492,41.5614587 59.3067686,38.1138284 61.6275988,38.3631022 C63.3266777,38.5293785 62.4562261,40.7722794 61.5032485,41.9767273 C61.5032485,42.8905435 64.6111623,43.1398172 65.4813333,42.1430036 C67.7606198,39.7338264 67.3872884,35.4972982 61.9175622,35.4143008 C56.5542214,35.3377743 52.4854705,39.6713673 51.6287731,44.3664916 C49.1847155,49.4543768 44.9688776,50.8149725 42.2351373,50.5327811 C39.3343804,50.2421493 37.8009146,48.5394353 38.0496151,45.8809843 C42.8566078,47.0024348 46.7934296,45.5487131 48.3266147,42.4336354 C49.9013434,39.4015552 48.5337715,35.6219351 43.8926727,35.4556588 C39.0831536,35.2907893 34.7645794,38.6424801 33.6033222,44.0077738 C32.0678915,47.3698744 29.6928862,50.5730138 27.2768987,50.4497837 C25.9096075,50.3667862 25.7849765,48.0825272 26.6554282,44.8011732 C28.0013862,39.8328607 29.8147102,33.6415312 31.0874053,29.5887229 C31.8958222,29.8112686 32.8322385,29.927465 33.8871102,29.9170552 C36.4266059,29.9170552 38.5854719,28.8988592 40.1091132,26.9896362 C41.929174,28.432104 44.5537219,29.8320883 47.9821954,29.9170552 C55.0089662,30.1291911 59.707328,23.3411239 59.918976,14.346731 C60.1303433,5.4797884 54.2465842,0.218874589 46.4585542,0.00702004581 C41.8022975,-0.120430297 37.1463215,1.49168993 34.5217736,4.50407584 C31.8554014,7.68583285 31.6858584,12.1828886 34.9453504,14.7285193 C36.3845008,15.4498939 38.1621759,13.6256378 37.9505279,12.8617798 C35.0722269,8.06762118 40.1091132,3.10409151 45.611962,3.10409151 C52.9769767,3.10409151 55.3895958,8.32224052 55.305105,14.3045289 C55.2203335,20.8379767 52.7653287,26.395712 48.278615,26.7350168 C46.1621346,26.9471527 43.3262194,25.9289567 41.4637729,24.401522 C43.8340063,20.0319166 45.0194037,10.5707684 48.4478772,6.41329886 C48.701911,5.56475529 46.1197489,4.75841383 45.0194037,5.56475529 C41.5485444,8.49217431 40.2362705,16.8498782 38.1621759,22.3229279 C34.0987582,19.6923304 29.2665025,20.394292 27.53795,25.2078635 C27.4674942,25.4033999 25.9924141,31.3021281 24.9978929,34.5834821 C23.8374778,37.8231966 20.770827,41.353543 18.0772268,41.4368218 C13.9335289,41.5614587 16.9170924,33.1711185 19.4863424,25.4872414 C19.5691489,24.2411541 15.5498013,23.7845273 14.9280501,25.1136121 C10.0382507,30.84522 1.54313663,29.0592272 0.134301792,34.8741139 C-0.570255979,37.6985598 1.54313663,40.5230057 5.39715185,40.3983688 C6.43293598,40.3153713 6.76444304,38.2384653 6.10114822,38.030831 C4.56824384,37.6985598 4.31954337,36.4941118 4.60950679,35.2063851 C5.31406456,32.2159443 10.3282141,32.5068574 13.6435655,29.0178691 C11.4470856,35.8712088 9.45776249,44.634897 16.8755488,44.468902 C19.7350428,44.4272626 21.7653482,42.5996303 23.3400769,40.4813663 C21.4338411,46.8361585 20.729564,53.4402245 25.7024507,53.5235033 C29.0220125,53.583993 31.6813672,50.6923051 33.4744808,47.8169353 C34.060583,50.9140068 36.4917284,53.3307804 41.0747223,53.4818639 C44.3954069,53.5868065 48.4529298,52.6279747 51.656001,47.8138405 C52.3400677,50.8718047 54.8043357,53.2635384 58.3122474,53.3988664 C61.4768627,53.54995 64.8382489,52.7754007 67.7117779,49.5148665 C67.4818844,50.3771961 67.2503066,51.2521863 67.0136762,52.1527791 C66.8480631,53.6065008 71.2404615,53.5648614 71.6135122,52.6096872 C72.3593329,49.3699726 73.0226277,46.5455267 73.9756053,43.3474516 C75.3847208,40.8966349 77.4150261,38.7786522 78.6995107,38.7786522 C79.9011887,38.7370128 79.8186628,40.107737 79.5284187,41.1875481 C78.4508103,45.5487131 77.6221829,48.9130645 76.7932749,52.4020528 C76.9591688,53.6065008 80.8957099,53.4818639 81.3515672,52.5680478 C81.9733184,50.2005099 82.8437701,46.1716161 83.5895908,43.4720884 C84.5010247,41.2291875 86.946205,38.7370128 88.3965835,38.6953734 C89.7226118,38.6953734 89.4739113,40.1490951 89.1839479,41.353543 C88.645284,43.5550859 87.6507628,47.1684297 87.3605187,48.8300671 C86.8218548,51.6542316 87.7748324,53.5648614 91.0070964,53.4402245 C93.4522768,53.3645421 95.5286169,51.5051175 97.1631348,49.2380207 C97.0637669,51.5802373 98.0723231,53.4050561 100.868098,53.4402245 C103.644224,53.5235033 106.255018,52.1527791 108.658654,48.1652433 C108.037184,50.657418 108.907074,53.2742296 111.186641,53.2742296 C115.496233,53.315869 118.562603,47.5423403 119.971438,44.7181758 C120.220139,44.2196283 118.76976,43.3474516 118.52106,43.8873571" id="Fill-3"></path>
                </g>
                <path d="M107,1 L119,1" id="Line" stroke="#AC5C00" stroke-width="2" stroke-linecap="square"></path>
                <path d="M119,13.0000004 L119,1.00000041" id="Line" stroke="#AC5C00" stroke-width="2" stroke-linecap="square"></path>
            </g>
        </g>
    </g>
</svg>