<?xml version="1.0" encoding="UTF-8" standalone="no"?>
<svg width="138px" height="108px" viewBox="0 0 138 108" version="1.1" xmlns="http://www.w3.org/2000/svg" xmlns:xlink="http://www.w3.org/1999/xlink">
    <!-- Generator: Sketch 39.1 (31720) - http://www.bohemiancoding.com/sketch -->
    <title>“</title>
    <desc>Created with Sketch.</desc>
    <defs></defs>
    <g id="1.-Main" stroke="none" stroke-width="1" fill="none" fill-rule="evenodd" opacity="0.1">
        <g id="delo4-main-2560" transform="translate(-800.000000, -23602.000000)" fill="#FFFFFF">
            <g id="reccomendation" transform="translate(0.000000, 23191.000000)">
                <path d="M928,421 C921.866636,423.133344 916.266692,426.19998 911.2,430.2 C906.666644,433.666684 902.333354,438.199972 898.2,443.8 C894.066646,449.400028 891.33334,456.466624 890,465 C891.600008,464.199996 893.333324,463.266672 895.2,462.2 C896.800008,461.399996 898.666656,460.66667 900.8,460 C902.933344,459.33333 905.33332,459 908,459 C916.00004,459 922.99997,461.99997 929,468 C935.00003,474.00003 938,480.99996 938,489 C938,497.00004 935.00003,503.99997 929,510 C922.99997,516.00003 916.00004,519 908,519 C898.933288,519 891.333364,515.800032 885.2,509.4 C879.066636,502.999968 876,494.200056 876,483 C876,468.599928 878.466642,456.73338 883.4,447.4 C888.333358,438.06662 893.866636,430.73336 900,425.4 C906.933368,418.999968 914.933288,414.200016 924,411 L928,421 Z M852,421 C845.866636,423.133344 840.266692,426.19998 835.2,430.2 C830.666644,433.666684 826.333354,438.199972 822.2,443.8 C818.066646,449.400028 815.33334,456.466624 814,465 C815.600008,464.199996 817.333324,463.266672 819.2,462.2 C820.800008,461.399996 822.666656,460.66667 824.8,460 C826.933344,459.33333 829.33332,459 832,459 C840.00004,459 846.99997,461.99997 853,468 C859.00003,474.00003 862,480.99996 862,489 C862,497.00004 859.00003,503.99997 853,510 C846.99997,516.00003 840.00004,519 832,519 C822.933288,519 815.333364,515.800032 809.2,509.4 C803.066636,502.999968 800,494.200056 800,483 C800,468.599928 802.466642,456.73338 807.4,447.4 C812.333358,438.06662 817.866636,430.73336 824,425.4 C830.933368,418.999968 838.933288,414.200016 848,411 L852,421 Z" id="“"></path>
            </g>
        </g>
    </g>
</svg>