<?xml version="1.0" encoding="UTF-8" standalone="no"?>
<svg width="42px" height="42px" viewBox="0 0 42 42" version="1.1" xmlns="http://www.w3.org/2000/svg" xmlns:xlink="http://www.w3.org/1999/xlink">
    <!-- Generator: Sketch 39.1 (31720) - http://www.bohemiancoding.com/sketch -->
    <title>Group 10</title>
    <desc>Created with Sketch.</desc>
    <defs></defs>
    <g id="6.-Blog-Article" stroke="none" stroke-width="1" fill="none" fill-rule="evenodd">
        <g id="delo4-blog-article-2560" transform="translate(-1543.000000, -403.000000)">
            <g id="Group-10" transform="translate(1544.000000, 404.000000)">
                <path d="M31.3933746,12.3316786 C30.5199464,12.8511569 29.5538393,13.2297854 28.5259463,13.4342448 C27.7030701,12.5497686 26.5305419,12 25.2316334,12 C22.7391332,12 20.7184528,14.0339924 20.7184528,16.5435423 C20.7184528,16.8994531 20.7577711,17.2477913 20.8350035,17.5779554 C17.0843174,17.3886411 13.7577073,15.5803113 11.53201,12.8299537 C11.1430395,13.502398 10.9211719,14.2823727 10.9211719,15.1153555 C10.9211719,16.6904501 11.7187719,18.0838031 12.9292143,18.8986117 C12.1891875,18.8743795 11.4926916,18.6699201 10.884662,18.3291544 L10.884662,18.3867059 C10.884662,20.5888094 12.4405438,22.425915 14.5047552,22.8424064 C14.1270186,22.9469079 13.7268143,23.0014304 13.3153763,23.0014304 C13.0247016,23.0014304 12.7424523,22.9741691 12.4658199,22.9211611 C13.0401481,24.7249474 14.7069637,26.0395456 16.6827089,26.0774085 C15.1380609,27.2950778 13.1918044,28.0220446 11.0770409,28.0220446 C10.7133465,28.0220446 10.3538648,28.0008414 10,27.9599495 C11.9982128,29.2472865 14.3713538,30 16.9186188,30 C25.2218038,30 29.7616646,23.0741271 29.7616646,17.0705932 C29.7616646,16.8721918 29.7560477,16.6768195 29.7476224,16.4814472 C30.629476,15.8392932 31.3947788,15.0411443 32,14.1309213 C31.1911661,14.4928902 30.3205464,14.7352125 29.4077998,14.845772 C30.3402055,14.2823727 31.0549563,13.3903239 31.3933746,12.3316786 L31.3933746,12.3316786 Z" id="Path" fill="#3C3C3C"></path>
                <circle id="Oval-5-Copy" stroke="#ECEBE8" stroke-width="2" cx="20" cy="20" r="20"></circle>
            </g>
        </g>
    </g>
</svg>