<?xml version="1.0" encoding="UTF-8" standalone="no"?>
<svg width="22px" height="18px" viewBox="0 0 22 18" version="1.1" xmlns="http://www.w3.org/2000/svg" xmlns:xlink="http://www.w3.org/1999/xlink">
    <!-- Generator: Sketch 39.1 (31720) - http://www.bohemiancoding.com/sketch -->
    <title>Twi</title>
    <desc>Created with Sketch.</desc>
    <defs></defs>
    <g id="1.-Main" stroke="none" stroke-width="1" fill="none" fill-rule="evenodd">
        <g id="delo4-main-2560" transform="translate(-1675.000000, -24482.000000)" fill="#3C3C3C">
            <g id="Social" transform="translate(1622.000000, 24476.000000)">
                <g id="Twi" transform="translate(49.000000, 0.000000)">
                    <path d="M25.3933746,6.33167859 C24.5199464,6.85115692 23.5538393,7.22978544 22.5259463,7.43424485 C21.7030701,6.54976862 20.5305419,6 19.2316334,6 C16.7391332,6 14.7184528,8.03399243 14.7184528,10.5435423 C14.7184528,10.8994531 14.7577711,11.2477913 14.8350035,11.5779554 C11.0843174,11.3886411 7.75770728,9.58031132 5.53200996,6.82995372 C5.14303951,7.50239798 4.92117189,8.28237274 4.92117189,9.11535549 C4.92117189,10.6904501 5.71877194,12.0838031 6.92921427,12.8986117 C6.18918746,12.8743795 5.49269164,12.6699201 4.88466203,12.3291544 L4.88466203,12.3867059 C4.88466203,14.5888094 6.44054382,16.425915 8.50475522,16.8424064 C8.12701857,16.9469079 7.72681432,17.0014304 7.31537627,17.0014304 C7.0247016,17.0014304 6.74245229,16.9741691 6.46581988,16.9211611 C7.04014808,18.7249474 8.70696368,20.0395456 10.6827089,20.0774085 C9.13806089,21.2950778 7.19180443,22.0220446 5.07704091,22.0220446 C4.71334652,22.0220446 4.35386481,22.0008414 4,21.9599495 C5.9982128,23.2472865 8.3713538,24 10.9186188,24 C19.2218038,24 23.7616646,17.0741271 23.7616646,11.0705932 C23.7616646,10.8721918 23.7560477,10.6768195 23.7476224,10.4814472 C24.629476,9.83929323 25.3947788,9.0411443 26,8.13092133 C25.1911661,8.4928902 24.3205464,8.73521245 23.4077998,8.84577198 C24.3402055,8.28237274 25.0549563,7.39032394 25.3933746,6.33167859 L25.3933746,6.33167859 Z" id="Path"></path>
                </g>
            </g>
        </g>
    </g>
</svg>