<?xml version="1.0" encoding="UTF-8" standalone="no"?>
<svg width="42px" height="42px" viewBox="0 0 42 42" version="1.1" xmlns="http://www.w3.org/2000/svg" xmlns:xlink="http://www.w3.org/1999/xlink">
    <!-- Generator: Sketch 39.1 (31720) - http://www.bohemiancoding.com/sketch -->
    <title>Group 11</title>
    <desc>Created with Sketch.</desc>
    <defs></defs>
    <g id="6.-Blog-Article" stroke="none" stroke-width="1" fill="none" fill-rule="evenodd">
        <g id="delo4-blog-article-2560" transform="translate(-1595.000000, -403.000000)">
            <g id="Group-11" transform="translate(1596.000000, 404.000000)">
                <path d="M18.7425133,27.9413572 L20.1770184,27.9413572 C20.1770184,27.9413572 20.6102264,27.8924469 20.8317321,27.6487594 C21.0353213,27.4247743 21.0288139,27.0044566 21.0288139,27.0044566 C21.0288139,27.0044566 21.0007559,25.0363777 21.8939623,24.7464587 C22.7748298,24.4608604 23.9056836,26.6486901 25.1042315,27.4899305 C26.0106217,28.126456 26.6993937,27.9870702 26.6993937,27.9870702 L29.9045077,27.9413572 C29.9045077,27.9413572 31.5810548,27.8355001 30.7860514,26.4877008 C30.7209772,26.377523 30.3229261,25.4906561 28.4029001,23.6683576 C26.393038,21.7609413 26.662462,22.0696121 29.0833055,18.7704119 C30.5576157,16.7611999 31.1469172,15.5346395 30.9627657,15.0092424 C30.7872345,14.5087324 29.7028623,14.6409459 29.7028623,14.6409459 L26.0942039,14.6638456 C26.0942039,14.6638456 25.8264702,14.6265147 25.6282053,14.7479264 C25.4342505,14.8664864 25.3097644,15.1437025 25.3097644,15.1437025 C25.3097644,15.1437025 24.7383794,16.6984633 23.9769272,18.0208568 C22.3700178,20.8107329 21.7273893,20.9584144 21.4647263,20.7848951 C20.8535362,20.3811689 21.0063337,19.1629907 21.0063337,18.2973816 C21.0063337,15.5934874 21.4074272,14.4662168 20.2252747,14.1743967 C19.8330549,14.0775266 19.5441087,14.0134938 18.5408679,14.0031241 C17.2532445,13.9896435 16.163548,14.0071856 15.5464421,14.316202 C15.1358833,14.5218674 14.8191327,14.9797752 15.0121578,15.0062179 C15.250735,15.0387095 15.790766,15.155282 16.0771769,15.5536506 C16.447001,16.068246 16.4340706,17.2234284 16.4340706,17.2234284 C16.4340706,17.2234284 16.6466181,20.4062289 15.9377322,20.801573 C15.4514507,21.0727401 14.7841447,20.5190856 13.3514989,17.9878466 C12.6175975,16.6913773 12.063284,15.2580283 12.063284,15.2580283 C12.063284,15.2580283 11.9565454,14.9902313 11.7658866,14.846784 C11.534662,14.6731783 11.211573,14.6180462 11.211573,14.6180462 L7.7822489,14.6409459 C7.7822489,14.6409459 7.2675714,14.6557227 7.07843376,14.8845469 C6.91017056,15.0883112 7.06499637,15.5093202 7.06499637,15.5093202 C7.06499637,15.5093202 9.74960153,21.9317818 12.7896638,25.1682454 C15.577458,28.1361344 18.7425133,27.9413572 18.7425133,27.9413572" id="Fill-1" fill="#3C3C3C"></path>
                <circle id="Oval-5-Copy-2" stroke="#ECEBE8" stroke-width="2" cx="20" cy="20" r="20"></circle>
            </g>
        </g>
    </g>
</svg>