<?xml version="1.0" encoding="UTF-8" standalone="no"?>
<svg width="24px" height="14px" viewBox="0 0 24 14" version="1.1" xmlns="http://www.w3.org/2000/svg" xmlns:xlink="http://www.w3.org/1999/xlink">
    <!-- Generator: Sketch 39.1 (31720) - http://www.bohemiancoding.com/sketch -->
    <title>VK</title>
    <desc>Created with Sketch.</desc>
    <defs></defs>
    <g id="1.-Main" stroke="none" stroke-width="1" fill="none" fill-rule="evenodd">
        <g id="delo4-main-2560" transform="translate(-1723.000000, -24484.000000)" fill="#3C3C3C">
            <g id="Social" transform="translate(1622.000000, 24476.000000)">
                <g id="VK" transform="translate(98.000000, 0.000000)">
                    <path d="M14.7425133,21.9413572 L16.1770184,21.9413572 C16.1770184,21.9413572 16.6102264,21.8924469 16.8317321,21.6487594 C17.0353213,21.4247743 17.0288139,21.0044566 17.0288139,21.0044566 C17.0288139,21.0044566 17.0007559,19.0363777 17.8939623,18.7464587 C18.7748298,18.4608604 19.9056836,20.6486901 21.1042315,21.4899305 C22.0106217,22.126456 22.6993937,21.9870702 22.6993937,21.9870702 L25.9045077,21.9413572 C25.9045077,21.9413572 27.5810548,21.8355001 26.7860514,20.4877008 C26.7209772,20.377523 26.3229261,19.4906561 24.4029001,17.6683576 C22.393038,15.7609413 22.662462,16.0696121 25.0833055,12.7704119 C26.5576157,10.7611999 27.1469172,9.53463949 26.9627657,9.00924235 C26.7872345,8.50873244 25.7028623,8.64094587 25.7028623,8.64094587 L22.0942039,8.66384558 C22.0942039,8.66384558 21.8264702,8.62651473 21.6282053,8.74792641 C21.4342505,8.86648642 21.3097644,9.14370254 21.3097644,9.14370254 C21.3097644,9.14370254 20.7383794,10.6984633 19.9769272,12.0208568 C18.3700178,14.8107329 17.7273893,14.9584144 17.4647263,14.7848951 C16.8535362,14.3811689 17.0063337,13.1629907 17.0063337,12.2973816 C17.0063337,9.59348743 17.4074272,8.46621676 16.2252747,8.17439667 C15.8330549,8.07752657 15.5441087,8.01349379 14.5408679,8.00312411 C13.2532445,7.98964353 12.163548,8.00718557 11.5464421,8.31620205 C11.1358833,8.52186737 10.8191327,8.97977518 11.0121578,9.00621786 C11.250735,9.03870953 11.790766,9.15528202 12.0771769,9.55365057 C12.447001,10.068246 12.4340706,11.2234284 12.4340706,11.2234284 C12.4340706,11.2234284 12.6466181,14.4062289 11.9377322,14.801573 C11.4514507,15.0727401 10.7841447,14.5190856 9.35149892,11.9878466 C8.61759754,10.6913773 8.06328395,9.25802827 8.06328395,9.25802827 C8.06328395,9.25802827 7.95654542,8.99023127 7.76588656,8.84678403 C7.53466199,8.67317829 7.21157298,8.61804616 7.21157298,8.61804616 L3.7822489,8.64094587 C3.7822489,8.64094587 3.2675714,8.65572266 3.07843376,8.88454695 C2.91017056,9.08831117 3.06499637,9.50932019 3.06499637,9.50932019 C3.06499637,9.50932019 5.74960153,15.9317818 8.78966378,19.1682454 C11.577458,22.1361344 14.7425133,21.9413572 14.7425133,21.9413572" id="Fill-1"></path>
                </g>
            </g>
        </g>
    </g>
</svg>