<?xml version="1.0" standalone="no"?>
<!DOCTYPE svg PUBLIC "-//W3C//DTD SVG 20010904//EN"
 "http://www.w3.org/TR/2001/REC-SVG-20010904/DTD/svg10.dtd">
<svg version="1.0" xmlns="http://www.w3.org/2000/svg"
 width="16.000000pt" height="16.000000pt" viewBox="0 0 16.000000 16.000000"
 preserveAspectRatio="xMidYMid meet">
<metadata>
Created by potrace 1.11, written by Peter Selinger 2001-2013
</metadata>
<g transform="translate(0.000000,16.000000) scale(0.006154,-0.006154)"
fill="#000000" stroke="none">
<path d="M1880 2080 l0 -40 210 0 210 0 0 -210 0 -210 40 0 40 0 0 250 0 250
-250 0 -250 0 0 -40z"/>
<path d="M780 1819 c-113 -22 -236 -114 -287 -213 -34 -67 -43 -173 -19 -231
25 -59 66 -115 86 -115 9 0 24 8 34 19 15 17 15 21 -14 76 -40 77 -40 131 1
213 52 104 147 163 275 170 199 11 339 -91 390 -283 21 -76 18 -245 -6 -342
-22 -94 -65 -185 -110 -237 -40 -45 -123 -86 -175 -86 -54 0 -144 24 -203 54
-69 35 -76 45 -56 92 9 21 41 125 71 229 73 259 104 338 159 412 31 41 30 61
-2 69 -67 17 -142 -127 -239 -456 -37 -123 -69 -228 -71 -232 -2 -4 -28 5 -56
20 -69 36 -181 39 -225 6 -42 -31 -67 -80 -67 -135 -2 -87 62 -141 167 -142
73 0 128 24 174 76 l30 35 43 -29 c90 -61 230 -94 329 -78 94 15 169 65 232
157 l30 42 259 0 260 0 0 -105 0 -105 145 0 145 0 0 105 0 105 65 0 65 0 0
125 0 125 -65 0 -65 0 0 330 0 330 -202 -2 -201 -3 -156 -254 -156 -255 -8 70
c-15 137 -80 273 -163 343 -107 89 -270 128 -414 100z m1007 -656 c-3 -2 -59
-2 -125 -1 l-121 3 122 197 122 197 3 -196 c1 -108 1 -198 -1 -200z m-1278
-244 c71 -31 74 -37 49 -71 -44 -62 -110 -83 -168 -53 -52 27 -53 102 -2 129
37 21 69 19 121 -5z"/>
</g>
</svg>
